<?xml version="1.0" encoding="utf-8"?>
<!-- Generator: Adobe Illustrator 15.0.0, SVG Export Plug-In . SVG Version: 6.00 Build 0)  -->
 
<svg version="1.1" id="Layer_1" xmlns="http://www.w3.org/2000/svg" xmlns:xlink="http://www.w3.org/1999/xlink" x="0px" y="0px"
	 width="16px" height="16px" viewBox="0 0 16 16" enable-background="new 0 0 16 16" xml:space="preserve">
<path fill="#5C5C5C" d="M15,6h-2.2l1.5-1.5c0.4-0.4,0.4-1,0-1.4L13,1.6c-0.4-0.4-1-0.4-1.4,0L10,3.2V1c0-0.6-0.4-1-1-1H7
	C6.4,0,6,0.4,6,1v2.2L4.5,1.6c-0.4-0.4-1-0.4-1.4,0L1.6,3c-0.4,0.4-0.4,1,0,1.4L3.2,6H1C0.4,6,0,6.4,0,7v2c0,0.6,0.4,1,1,1h2.2
	l-1.5,1.5c-0.4,0.4-0.4,1,0,1.4L3,14.4c0.4,0.4,1,0.4,1.4,0L6,12.8V15c0,0.6,0.4,1,1,1h2c0.6,0,1-0.4,1-1v-2.2l1.5,1.5
	c0.4,0.4,1,0.4,1.4,0l1.4-1.4c0.4-0.4,0.4-1,0-1.4L12.8,10H15c0.6,0,1-0.4,1-1V7C16,6.4,15.6,6,15,6z M7.7,10c-1.1,0-2-0.9-2-2
	s0.9-2,2-2c1.1,0,2,0.9,2,2S8.8,10,7.7,10z"/>
</svg>
