<?xml version="1.0" encoding="utf-8"?>
<!-- Generator: Adobe Illustrator 23.0.3, SVG Export Plug-In . SVG Version: 6.00 Build 0)  -->
<svg version="1.1" id="Layer_1" xmlns="http://www.w3.org/2000/svg" xmlns:xlink="http://www.w3.org/1999/xlink" x="0px" y="0px"
	 viewBox="0 0 24 24" style="enable-background:new 0 0 24 24;" xml:space="preserve">
<style type="text/css">
	.st0{fill:none;stroke:#006EB9;stroke-linecap:round;stroke-linejoin:round;stroke-miterlimit:10;}
	.st1{fill:none;stroke:#006EB9;stroke-width:1.5;stroke-linecap:round;stroke-linejoin:round;stroke-miterlimit:10;}
</style>
<polyline class="st0" points="21.48,1.77 23.32,1.95 23.32,14.93 11.94,14.01 0.71,14.93 0.71,1.95 3.03,1.71 "/>
<g>
	<path class="st1" d="M11.91,13.23c-4.16-2.54-9.59,0-9.59,0s0,0,0-11.11c4.8-3.04,9.59,0,9.59,0S11.91,2.12,11.91,13.23z"/>
	<path class="st1" d="M21.71,13.23c-4.16-2.54-9.59,0-9.59,0s0,0,0-11.11c4.8-3.04,9.59,0,9.59,0S21.71,2.12,21.71,13.23z"/>
</g>
</svg>
