<?xml version="1.0" encoding="utf-8"?>
<!-- Generator: Adobe Illustrator 23.0.3, SVG Export Plug-In . SVG Version: 6.00 Build 0)  -->
<svg version="1.1" id="Layer_1" xmlns="http://www.w3.org/2000/svg" xmlns:xlink="http://www.w3.org/1999/xlink" x="0px" y="0px"
	 viewBox="0 0 24 24" style="enable-background:new 0 0 24 24;" xml:space="preserve">
<style type="text/css">
	.st0{fill:none;stroke:#006EB9;stroke-width:1.5;stroke-linecap:round;stroke-linejoin:round;stroke-miterlimit:10;}
	.st1{fill:#006EB9;}
</style>
<g>
	<g>
		<line class="st0" x1="4.91" y1="0.94" x2="4.91" y2="5.16"/>
		<line class="st0" x1="9.23" y1="0.94" x2="9.23" y2="5.16"/>
		<line class="st0" x1="13.55" y1="0.94" x2="13.55" y2="5.16"/>
	</g>
	<path class="st0" d="M17.52,13.52V5.51c0-1.26-1.02-2.28-2.28-2.28H3.22c-1.26,0-2.28,1.02-2.28,2.28v12.02
		c0,1.26,1.02,2.28,2.28,2.28h8.14"/>
	<path class="st0" d="M17.23,15.95"/>
	<path class="st0" d="M14.09,19.09"/>
	<rect x="3.36" y="8.14" class="st1" width="3.27" height="3.27"/>
	<rect x="7.66" y="8.14" class="st1" width="3.27" height="3.27"/>
	<rect x="12.07" y="8.14" class="st1" width="3.27" height="3.27"/>
	<rect x="3.36" y="13.46" class="st1" width="3.27" height="3.27"/>
	<rect x="7.56" y="13.47" class="st1" width="3.47" height="3.47"/>
	<path class="st1" d="M15.71,14.73v-1.26h-3.47v3.47h0.7C13.48,15.85,14.49,15.03,15.71,14.73z"/>
</g>
<g>
	<polyline class="st0" points="16.2,19.49 17.14,20.42 18.84,18.69 	"/>
	<circle class="st0" cx="17.52" cy="19.56" r="3.51"/>
</g>
</svg>
