<?xml version="1.0" encoding="utf-8"?>
<!-- Generator: Adobe Illustrator 23.0.3, SVG Export Plug-In . SVG Version: 6.00 Build 0)  -->
<svg version="1.1" id="Layer_1" xmlns="http://www.w3.org/2000/svg" xmlns:xlink="http://www.w3.org/1999/xlink" x="0px" y="0px"
	 viewBox="0 0 24 24" style="enable-background:new 0 0 24 24;" xml:space="preserve">
<style type="text/css">
	.st0{fill:#006EB9;}
	.st1{fill:none;stroke:#006EB9;stroke-width:1.5;stroke-linecap:round;stroke-linejoin:round;stroke-miterlimit:10;}
</style>
<g>
	<path class="st0" d="M0.84,9.41h19.7l-0.19-4.12l-2.53-1.73l-5.71-0.21L2.47,3.56C2.47,3.56-0.11,5.07,0.84,9.41z"/>
	<g>
		<line class="st1" x1="5.56" y1="0.84" x2="5.56" y2="5.86"/>
		<line class="st1" x1="10.69" y1="0.84" x2="10.69" y2="5.86"/>
		<line class="st1" x1="15.83" y1="0.84" x2="15.83" y2="5.86"/>
	</g>
	<path class="st1" d="M0.84,15.92v4.52c0,1.5,1.22,2.71,2.71,2.71h14.28c1.5,0,2.71-1.22,2.71-2.71v-4.66V6.28
		c0-1.5-1.22-2.71-2.71-2.71H3.55c-1.5,0-2.71,1.22-2.71,2.71V15.92z"/>
	<g>
		<path class="st0" d="M8.69,11.15v8.14H6.71v-5.41l-1.39,0.63v-1.66L8.69,11.15z"/>
		<path class="st0" d="M15.86,19.29h-5.59V18.2l3.29-3.81c0.19-0.22,0.36-0.47,0.36-0.73c0-0.29-0.19-0.64-0.84-0.64
			c-0.7,0-0.91,0.51-1.01,1.08l-1.75-0.27c0.25-1.61,1.29-2.62,2.9-2.62c1.41,0,2.63,0.99,2.63,2.45c0,0.76-0.35,1.47-0.82,1.99
			l-1.76,1.89h2.58V19.29z"/>
	</g>
	<path class="st0" d="M0.84,9.41h19.7l-0.19-4.12l-2.53-1.73l-5.71-0.21L2.47,3.56C2.47,3.56-0.11,5.07,0.84,9.41z"/>
	<g>
		<line class="st1" x1="5.56" y1="0.84" x2="5.56" y2="5.86"/>
		<line class="st1" x1="10.69" y1="0.84" x2="10.69" y2="5.86"/>
		<line class="st1" x1="15.83" y1="0.84" x2="15.83" y2="5.86"/>
	</g>
	<path class="st1" d="M0.84,15.92v4.52c0,1.5,1.22,2.71,2.71,2.71h14.28c1.5,0,2.71-1.22,2.71-2.71v-4.66V6.28
		c0-1.5-1.22-2.71-2.71-2.71H3.55c-1.5,0-2.71,1.22-2.71,2.71V15.92z"/>
	<g>
		<path class="st0" d="M8.69,11.15v8.14H6.71v-5.41l-1.39,0.63v-1.66L8.69,11.15z"/>
		<path class="st0" d="M15.86,19.29h-5.59V18.2l3.29-3.81c0.19-0.22,0.36-0.47,0.36-0.73c0-0.29-0.19-0.64-0.84-0.64
			c-0.7,0-0.91,0.51-1.01,1.08l-1.75-0.27c0.25-1.61,1.29-2.62,2.9-2.62c1.41,0,2.63,0.99,2.63,2.45c0,0.76-0.35,1.47-0.82,1.99
			l-1.76,1.89h2.58V19.29z"/>
	</g>
</g>
</svg>
