<?xml version="1.0" encoding="utf-8"?>
<!-- Generator: Adobe Illustrator 23.0.3, SVG Export Plug-In . SVG Version: 6.00 Build 0)  -->
<svg version="1.1" id="Layer_1" xmlns="http://www.w3.org/2000/svg" xmlns:xlink="http://www.w3.org/1999/xlink" x="0px" y="0px"
	 viewBox="0 0 24 24" style="enable-background:new 0 0 24 24;" xml:space="preserve">
<style type="text/css">
	.st0{fill:none;stroke:#006EB9;stroke-width:1.5;stroke-linecap:round;stroke-linejoin:round;stroke-miterlimit:10;}
	.st1{fill:#006EB9;}
	.st2{fill:none;stroke:#006EB9;stroke-width:0.5;stroke-miterlimit:10;}
</style>
<g>
	<line class="st0" x1="5.87" y1="0.91" x2="5.87" y2="6.22"/>
	<line class="st0" x1="11.31" y1="0.91" x2="11.31" y2="6.22"/>
	<line class="st0" x1="16.74" y1="0.91" x2="16.74" y2="6.22"/>
</g>
<path class="st0" d="M0.88,15.97v4.46c0,1.48,1.29,2.67,2.87,2.67h15.11c1.59,0,2.87-1.2,2.87-2.67v-4.59V6.47
	c0-1.48-1.29-2.67-2.87-2.67H3.75C2.16,3.8,0.88,5,0.88,6.47C0.88,6.47,0.88,15.97,0.88,15.97z"/>
<rect x="10.08" y="13.12" class="st1" width="2.78" height="2.78"/>
<rect x="13.7" y="13.12" class="st1" width="2.78" height="2.78"/>
<rect x="17.31" y="13.12" class="st1" width="2.78" height="2.78"/>
<rect x="2.68" y="13.12" class="st1" width="2.78" height="2.78"/>
<rect x="6.25" y="13.13" class="st1" width="2.95" height="2.77"/>
<rect x="10.08" y="17.65" class="st1" width="2.78" height="2.78"/>
<rect x="13.7" y="17.65" class="st1" width="2.78" height="2.78"/>
<rect x="17.31" y="17.65" class="st1" width="2.78" height="2.78"/>
<rect x="2.68" y="17.65" class="st1" width="2.78" height="2.78"/>
<rect x="6.25" y="17.66" class="st1" width="2.95" height="2.77"/>
<circle class="st2" cx="4.07" cy="9.98" r="1.41"/>
<circle class="st2" cx="7.73" cy="9.98" r="1.41"/>
<circle class="st2" cx="11.38" cy="9.98" r="1.41"/>
<circle class="st2" cx="15.04" cy="9.98" r="1.41"/>
<circle class="st2" cx="18.69" cy="9.98" r="1.41"/>
</svg>
