<?xml version="1.0" encoding="utf-8"?>
<!-- Generator: Adobe Illustrator 23.0.3, SVG Export Plug-In . SVG Version: 6.00 Build 0)  -->
<svg version="1.1" id="Layer_1" xmlns="http://www.w3.org/2000/svg" xmlns:xlink="http://www.w3.org/1999/xlink" x="0px" y="0px"
	 viewBox="0 0 24 24" style="enable-background:new 0 0 24 24;" xml:space="preserve">
<style type="text/css">
	.st0{fill:#006EB9;}
</style>
<g>
	<path class="st0" d="M3.64,11.55h12.82c-0.67-1.32-1.74-2.41-3.04-3.11c0.94-0.89,1.53-2.15,1.53-3.55c0-2.7-2.19-4.89-4.89-4.89
		c-2.7,0-4.89,2.19-4.89,4.89c0,1.4,0.59,2.66,1.53,3.55C5.38,9.14,4.31,10.23,3.64,11.55z"/>
	<path class="st0" d="M17.52,12.73H2.58C1.16,12.73,0,13.69,0,14.86v0.81c0,1.17,1.16,2.12,2.58,2.12h0.86v4.09
		c0,1.17,1.16,2.12,2.58,2.12h8.04c1.42,0,2.58-0.95,2.58-2.12v-4.09h0.86c1.42,0,2.58-0.95,2.58-2.12v-0.81
		C20.1,13.69,18.94,12.73,17.52,12.73z"/>
</g>
</svg>
