<?xml version="1.0" encoding="utf-8"?>
<!-- Generator: Adobe Illustrator 23.0.3, SVG Export Plug-In . SVG Version: 6.00 Build 0)  -->
<svg version="1.1" id="Layer_1" xmlns="http://www.w3.org/2000/svg" xmlns:xlink="http://www.w3.org/1999/xlink" x="0px" y="0px"
	 viewBox="0 0 24 24" style="enable-background:new 0 0 24 24;" xml:space="preserve">
<style type="text/css">
	.st0{fill:none;stroke:#006EB9;stroke-width:1.5;stroke-linecap:round;stroke-linejoin:round;stroke-miterlimit:10;}
	.st1{fill:#006EB9;}
</style>
<g>
	<g>
		<line class="st0" x1="12.85" y1="5.2" x2="12.84" y2="7.78"/>
		<line class="st0" x1="15.49" y1="5.21" x2="15.49" y2="7.79"/>
		<line class="st0" x1="18.14" y1="5.22" x2="18.13" y2="7.8"/>
	</g>
	<path class="st0" d="M10.32,12.96l-0.01,2.33c0,0.77,0.62,1.4,1.39,1.4l7.35,0.03c0.77,0,1.4-0.62,1.4-1.39l0.01-2.4l0.02-4.9
		c0-0.77-0.62-1.4-1.39-1.4L11.74,6.6c-0.77,0-1.4,0.62-1.4,1.39L10.32,12.96z"/>
	<rect x="11.89" y="9.61" transform="matrix(1 3.507190e-03 -3.507190e-03 1 0.0373 -0.0451)" class="st1" width="2" height="2"/>
	<rect x="14.52" y="9.61" transform="matrix(1 3.507190e-03 -3.507190e-03 1 0.0373 -0.0544)" class="st1" width="2" height="2"/>
	<rect x="17.21" y="9.62" transform="matrix(1 3.507190e-03 -3.507190e-03 1 0.0374 -0.0638)" class="st1" width="2" height="2"/>
	<rect x="17.2" y="12.88" transform="matrix(1 3.507190e-03 -3.507190e-03 1 0.0488 -0.0638)" class="st1" width="2" height="2"/>
	<rect x="11.87" y="12.86" transform="matrix(1 3.507190e-03 -3.507190e-03 1 0.0487 -0.0451)" class="st1" width="2" height="2"/>
	
		<rect x="14.44" y="12.88" transform="matrix(1 3.507190e-03 -3.507190e-03 1 0.0488 -0.0543)" class="st1" width="2.12" height="1.99"/>
	<polyline class="st0" points="15.33,19.32 15.36,23.25 0.84,23.29 0.78,0.84 15.3,0.8 15.32,2.91 	"/>
</g>
</svg>
